<svg xmlns="http://www.w3.org/2000/svg" version="1.1" xmlns:xlink="http://www.w3.org/1999/xlink" xmlns:svgjs="http://svgjs.dev/svgjs" width="1440" height="700" preserveAspectRatio="none" viewBox="0 0 1440 700"><g mask="url(&quot;#SvgjsMask1019&quot;)" fill="none"><rect width="1440" height="700" x="0" y="0" fill="rgba(246, 246, 246, 1)"></rect><path d="M863.87-52.92C719.84 64.42 822.93 607.49 561.72 625.98 300.51 644.47 113.33 473.18-42.57 471.98" stroke="rgba(0, 150, 199, 1)" stroke-width="2"></path><path d="M1014.08-79.13C859.93 23.84 950.57 570.18 672.45 579.01 394.33 587.84 168.94 357.84-10.8 355.01" stroke="rgba(0, 150, 199, 1)" stroke-width="2"></path><path d="M648.19-21.65C513.42-0.06 490.78 290.24 227.65 326.51-35.48 362.78-64.47 612.54-192.89 627.51" stroke="rgba(0, 150, 199, 1)" stroke-width="2"></path><path d="M718.62-16.4C613.9-10.56 572.25 154.29 347.34 178.96 122.43 203.63 97.05 479.6-23.94 500.96" stroke="rgba(0, 150, 199, 1)" stroke-width="2"></path><path d="M1328.47-71.13C1088.9-14.98 992.9 621.74 632.65 624.98 272.41 628.22 128.36 310.66-63.16 302.98" stroke="rgba(0, 150, 199, 1)" stroke-width="2"></path></g><defs><mask id="SvgjsMask1019"><rect width="1440" height="700" fill="#ffffff"></rect></mask></defs></svg>