<svg xmlns="http://www.w3.org/2000/svg" version="1.1" xmlns:xlink="http://www.w3.org/1999/xlink" xmlns:svgjs="http://svgjs.dev/svgjs" width="1440" height="700" preserveAspectRatio="none" viewBox="0 0 1440 700"><g mask="url(&quot;#SvgjsMask1009&quot;)" fill="none"><rect width="1440" height="700" x="0" y="0" fill="rgba(246, 246, 246, 1)"></rect><path d="M-92.57 185.87C23.82 186.26 136.06 273.37 364.68 273.37 593.31 273.37 558.86 167.59 821.93 185.87 1085 204.15 1101.18 729.15 1279.18 799.02" stroke="rgba(0, 150, 199, 1)" stroke-width="2"></path><path d="M-152.98 164.28C-3.42 167.69 92.88 357.81 407.38 374.28 721.87 390.75 801.25 723.82 967.73 739.46" stroke="rgba(0, 150, 199, 1)" stroke-width="2"></path><path d="M-237.37 16.17C-137.24 16.7-41.95 103.67 153.47 103.67 348.89 103.67 300.22-17.06 544.32 16.17 788.41 49.4 764.88 603.18 935.16 703.63" stroke="rgba(0, 150, 199, 1)" stroke-width="2"></path><path d="M-52.64 116.57C65.52 132.05 89.22 370.13 327.94 403.57 566.66 437.01 587.95 690.43 708.52 708.44" stroke="rgba(0, 150, 199, 1)" stroke-width="2"></path><path d="M-123.01 391.99C-15.82 392.45 86.87 479.49 296.74 479.49 506.62 479.49 494.36 387.88 716.5 391.99 938.63 396.1 997.38 744.44 1136.25 771.06" stroke="rgba(0, 150, 199, 1)" stroke-width="2"></path></g><defs><mask id="SvgjsMask1009"><rect width="1440" height="700" fill="#ffffff"></rect></mask></defs></svg>